<mxfile modified="2021-06-30T20:13:21.726Z" host="app.diagrams.net" agent="5.0 (Windows)" etag="qkxH4FQiZOStwizdUTCK" version="14.8.3" type="github">
  <diagram id="l8hXMBHkgcEJcSW0mbfh" name="Page-1">
    <mxGraphModel dx="1497" dy="821" grid="1" gridSize="10" guides="1" tooltips="1" connect="1" arrows="1" fold="1" page="1" pageScale="1" pageWidth="1169" pageHeight="827" math="0" shadow="0">
      <root>
        <mxCell id="0" />
        <mxCell id="1" parent="0" />
        <mxCell id="8--HhbSZYtI3ddgJnD71-2" value="Mobile" style="shape=image;verticalLabelPosition=bottom;verticalAlign=top;imageAspect=0;aspect=fixed;image=data:image/svg+xml,PHN2ZyB4bWxucz0iaHR0cDovL3d3dy53My5vcmcvMjAwMC9zdmciIHZlcnNpb249IjEiIHZpZXdCb3g9IjAgMCA0OCA0OCIgZW5hYmxlLWJhY2tncm91bmQ9Im5ldyAwIDAgNDggNDgiPiYjeGE7ICAgIDxwYXRoIGZpbGw9IiMzNzQ3NEYiIGQ9Ik00LDM5VjdjMC0yLjIsMS44LTQsNC00aDIyYzIuMiwwLDQsMS44LDQsNHYzMmMwLDIuMi0xLjgsNC00LDRIOEM1LjgsNDMsNCw0MS4yLDQsMzl6Ii8+JiN4YTsgICAgPHBhdGggZmlsbD0iI0JCREVGQiIgZD0iTTMwLDZIOEM3LjQsNiw3LDYuNCw3LDd2MjljMCwwLjYsMC40LDEsMSwxaDIyYzAuNiwwLDEtMC40LDEtMVY3QzMxLDYuNCwzMC42LDYsMzAsNnoiLz4mI3hhOyAgICA8cmVjdCB4PSIxNSIgeT0iMzkiIGZpbGw9IiM3ODkwOUMiIHdpZHRoPSI2IiBoZWlnaHQ9IjIiLz4mI3hhOyAgICA8cGF0aCBmaWxsPSIjRTM4OTM5IiBkPSJNMjQsNDFWMTdjMC0yLjIsMS44LTQsNC00aDEyYzIuMiwwLDQsMS44LDQsNHYyNGMwLDIuMi0xLjgsNC00LDRIMjhDMjUuOCw0NSwyNCw0My4yLDI0LDQxeiIvPiYjeGE7ICAgIDxwYXRoIGZpbGw9IiNGRkYzRTAiIGQ9Ik00MCwxNkgyOGMtMC42LDAtMSwwLjQtMSwxdjIyYzAsMC42LDAuNCwxLDEsMWgxMmMwLjYsMCwxLTAuNCwxLTFWMTdDNDEsMTYuNCw0MC42LDE2LDQwLDE2eiIvPiYjeGE7ICAgIDxjaXJjbGUgZmlsbD0iI0E2NjQyQSIgY3g9IjM0IiBjeT0iNDIuNSIgcj0iMS41Ii8+JiN4YTs8L3N2Zz4=;labelBackgroundColor=#ffffff;" parent="1" vertex="1">
          <mxGeometry x="910" y="180" width="48" height="48" as="geometry" />
        </mxCell>
        <mxCell id="UGJDxIkZkdGyzObIaBCz-21" style="edgeStyle=orthogonalEdgeStyle;rounded=0;orthogonalLoop=1;jettySize=auto;html=1;exitX=1;exitY=0.5;exitDx=0;exitDy=0;endArrow=none;endFill=0;" edge="1" parent="1" source="8--HhbSZYtI3ddgJnD71-11">
          <mxGeometry relative="1" as="geometry">
            <mxPoint x="640" y="313.7368421052631" as="targetPoint" />
          </mxGeometry>
        </mxCell>
        <mxCell id="8--HhbSZYtI3ddgJnD71-11" value="Internet" style="shape=image;verticalLabelPosition=bottom;verticalAlign=top;imageAspect=0;aspect=fixed;image=data:image/svg+xml,PHN2ZyB4bWxucz0iaHR0cDovL3d3dy53My5vcmcvMjAwMC9zdmciIHZlcnNpb249IjEiIHZpZXdCb3g9IjAgMCA0OCA0OCIgZW5hYmxlLWJhY2tncm91bmQ9Im5ldyAwIDAgNDggNDgiPiYjeGE7ICAgIDxwYXRoIGZpbGw9IiM3Q0IzNDIiIGQ9Ik0yNCw0QzEzLDQsNCwxMyw0LDI0czksMjAsMjAsMjBzMjAtOSwyMC0yMFMzNSw0LDI0LDR6Ii8+JiN4YTsgICAgPHBhdGggZmlsbD0iIzAyNzdCRCIgZD0iTTQ1LDI0YzAsMTEuNy05LjUsMjEtMjEsMjFTMywzNS43LDMsMjRTMTIuMywzLDI0LDNTNDUsMTIuMyw0NSwyNHogTTIzLjgsMzMuN2MwLTAuNC0wLjItMC42LTAuNi0wLjggYy0xLjMtMC40LTIuNS0wLjQtMy42LTEuNWMtMC4yLTAuNC0wLjItMC44LTAuNC0xLjNjLTAuNC0wLjQtMS41LTAuNi0yLjEtMC44Yy0wLjgsMC0xLjcsMC0yLjcsMGMtMC40LDAtMS4xLDAtMS41LDAgYy0wLjYtMC4yLTEuMS0xLjEtMS41LTEuN2MwLTAuMiwwLTAuNi0wLjQtMC42Yy0wLjQtMC4yLTAuOCwwLjItMS4zLDBjLTAuMi0wLjItMC4yLTAuNC0wLjItMC42YzAtMC42LDAuNC0xLjMsMC44LTEuNyBjMC42LTAuNCwxLjMsMC4yLDEuOSwwLjJjMC4yLDAsMC4yLDAsMC40LDAuMmMwLjYsMC4yLDAuOCwxLDAuOCwxLjdjMCwwLjIsMCwwLjQsMCwwLjRjMCwwLjIsMC4yLDAuMiwwLjQsMC4yIGMwLjItMS4xLDAuMi0yLjEsMC40LTMuMmMwLTEuMywxLjMtMi41LDIuMy0yLjljMC40LTAuMiwwLjYsMC4yLDEuMSwwYzEuMy0wLjQsNC40LTEuNywzLjgtMy40Yy0wLjQtMS41LTEuNy0yLjktMy40LTIuNyBjLTAuNCwwLjItMC42LDAuNC0xLDAuNmMtMC42LDAuNC0xLjksMS43LTIuNSwxLjdjLTEuMS0wLjItMS4xLTEuNy0wLjgtMi4zYzAuMi0wLjgsMi4xLTMuNiwzLjQtMy4xYzAuMiwwLjIsMC42LDAuNiwwLjgsMC44IGMwLjQsMC4yLDEuMSwwLjIsMS43LDAuMmMwLjIsMCwwLjQsMCwwLjYtMC4yYzAuMi0wLjIsMC4yLTAuMiwwLjItMC40YzAtMC42LTAuNi0xLjMtMS0xLjdjLTAuNC0wLjQtMS4xLTAuOC0xLjctMS4xIGMtMi4xLTAuNi01LjUsMC4yLTcuMSwxLjdzLTIuOSw0LTMuOCw2LjFjLTAuNCwxLjMtMC44LDIuOS0xLDQuNGMtMC4yLDEtMC40LDEuOSwwLjIsMi45YzAuNiwxLjMsMS45LDIuNSwzLjIsMy40IGMwLjgsMC42LDIuNSwwLjYsMy40LDEuN2MwLjYsMC44LDAuNCwxLjksMC40LDIuOWMwLDEuMywwLjgsMi4zLDEuMywzLjRjMC4yLDAuNiwwLjQsMS41LDAuNiwyLjFjMCwwLjIsMC4yLDEuNSwwLjIsMS43IGMxLjMsMC42LDIuMywxLjMsMy44LDEuN2MwLjIsMCwxLTEuMywxLTEuNWMwLjYtMC42LDEuMS0xLjUsMS43LTEuOWMwLjQtMC4yLDAuOC0wLjQsMS4zLTAuOGMwLjQtMC40LDAuNi0xLjMsMC44LTEuOSBDMjMuOCwzNS4xLDI0LDM0LjMsMjMuOCwzMy43eiBNMjQuMiwxNC4zYzAuMiwwLDAuNC0wLjIsMC44LTAuNGMwLjYtMC40LDEuMy0xLjEsMS45LTEuNWMwLjYtMC40LDEuMy0xLjEsMS43LTEuNSBjMC42LTAuNCwxLjEtMS4zLDEuMy0xLjljMC4yLTAuNCwwLjgtMS4zLDAuNi0xLjljLTAuMi0wLjQtMS4zLTAuNi0xLjctMC44Yy0xLjctMC40LTMuMS0wLjYtNC44LTAuNmMtMC42LDAtMS41LDAuMi0xLjcsMC44IGMtMC4yLDEuMSwwLjYsMC44LDEuNSwxLjFjMCwwLDAuMiwxLjcsMC4yLDEuOWMwLjIsMS0wLjQsMS43LTAuNCwyLjdjMCwwLjYsMCwxLjcsMC40LDIuMUwyNC4yLDE0LjN6IE00MS44LDI5IGMwLjItMC40LDAuMi0xLjEsMC40LTEuNWMwLjItMSwwLjItMi4xLDAuMi0zLjFjMC0yLjEtMC4yLTQuMi0wLjgtNi4xYy0wLjQtMC42LTAuNi0xLjMtMC44LTEuOWMtMC40LTEuMS0xLTIuMS0xLjktMi45IGMtMC44LTEuMS0xLjktNC0zLjgtMy4xYy0wLjYsMC4yLTEsMS0xLjUsMS41Yy0wLjQsMC42LTAuOCwxLjMtMS4zLDEuOWMtMC4yLDAuMi0wLjQsMC42LTAuMiwwLjhjMCwwLjIsMC4yLDAuMiwwLjQsMC4yIGMwLjQsMC4yLDAuNiwwLjIsMSwwLjRjMC4yLDAsMC40LDAuMiwwLjIsMC40YzAsMCwwLDAuMi0wLjIsMC4yYy0xLDEuMS0yLjEsMS45LTMuMSwyLjljLTAuMiwwLjItMC40LDAuNi0wLjQsMC44IGMwLDAuMiwwLjIsMC4yLDAuMiwwLjRjMCwwLjItMC4yLDAuMi0wLjQsMC40Yy0wLjQsMC4yLTAuOCwwLjQtMS4xLDAuNmMtMC4yLDAuNCwwLDEuMS0wLjIsMS41Yy0wLjIsMS4xLTAuOCwxLjktMS4zLDIuOSBjLTAuNCwwLjYtMC42LDEuMy0xLDEuOWMwLDAuOC0wLjIsMS41LDAuMiwyLjFjMSwxLjUsMi45LDAuNiw0LjQsMS4zYzAuNCwwLjIsMC44LDAuMiwxLjEsMC42YzAuNiwwLjYsMC42LDEuNywwLjgsMi4zIGMwLjIsMC44LDAuNCwxLjcsMC44LDIuNWMwLjIsMSwwLjYsMi4xLDAuOCwyLjljMS45LTEuNSwzLjYtMy4xLDQuOC01LjJDNDAuNiwzMi40LDQxLjIsMzAuNyw0MS44LDI5eiIvPiYjeGE7PC9zdmc+;labelBackgroundColor=#ffffff;" parent="1" vertex="1">
          <mxGeometry x="520" y="290" width="48" height="48" as="geometry" />
        </mxCell>
        <mxCell id="UGJDxIkZkdGyzObIaBCz-22" style="edgeStyle=orthogonalEdgeStyle;rounded=0;orthogonalLoop=1;jettySize=auto;html=1;exitX=1;exitY=0.5;exitDx=0;exitDy=0;entryX=0;entryY=0.5;entryDx=0;entryDy=0;endArrow=none;endFill=0;" edge="1" parent="1" source="UGJDxIkZkdGyzObIaBCz-1" target="UGJDxIkZkdGyzObIaBCz-2">
          <mxGeometry relative="1" as="geometry" />
        </mxCell>
        <mxCell id="UGJDxIkZkdGyzObIaBCz-1" value="" style="shape=image;verticalLabelPosition=bottom;verticalAlign=top;imageAspect=0;aspect=fixed;image=data:image/svg+xml,PHN2ZyB4bWxucz0iaHR0cDovL3d3dy53My5vcmcvMjAwMC9zdmciIHZlcnNpb249IjEiIHZpZXdCb3g9IjAgMCA0OCA0OCIgZW5hYmxlLWJhY2tncm91bmQ9Im5ldyAwIDAgNDggNDgiPiYjeGE7ICAgIDxwYXRoIGZpbGw9IiNDRkQ4REMiIGQ9Ik0yNCwzQzEyLjQsMywzLDEyLjQsMywyNGMwLDExLjYsOS40LDIxLDIxLDIxYzAuMywwLDAuNywwLDEtMC4xVjMuMUMyNC43LDMsMjQuMywzLDI0LDN6Ii8+JiN4YTsgICAgPHBhdGggZmlsbD0iIzM3NDc0RiIgZD0iTTI1LDMuMXY0MS45YzQuMS0wLjIsNy45LTEuNSwxMS0zLjdWNi44QzMyLjksNC42LDI5LjEsMy4yLDI1LDMuMXoiLz4mI3hhOyAgICA8cGF0aCBmaWxsPSIjRkZCNzREIiBkPSJNMjAuNSwxM0MxNC4xLDEzLjMsOC45LDE4LjcsOSwyNS4xYzAsMi44LDEsNS40LDIuNyw3LjVjMS40LDEuNywyLjMsMy45LDIuMyw2LjF2My44YzMsMS42LDYuNCwyLjUsMTAsMi41IGMwLjMsMCwwLjcsMCwxLTAuMWMwLjcsMCwxLjMtMC4xLDItMC4ydi05LjRjMy42LTIuMSw2LTUuOSw2LTEwLjRDMzMsMTguMiwyNy40LDEyLjcsMjAuNSwxM3oiLz4mI3hhOyAgICA8cGF0aCBmaWxsPSIjRkZCNzREIiBkPSJNMjksMzguNkwyNSwzOHYtOWg4bC0wLjcsN0MzMi4xLDM3LjYsMzAuNywzOC44LDI5LDM4LjZ6Ii8+JiN4YTsgICAgPHBvbHlnb24gZmlsbD0iI0ZGQjc0RCIgcG9pbnRzPSIzOSwyOSAzMiwzMSAzMSwyNiAzMiwyMiIvPiYjeGE7ICAgIDxjaXJjbGUgZmlsbD0iIzc4NDcxOSIgY3g9IjI5LjUiIGN5PSIyNS41IiByPSIxLjUiLz4mI3hhOyAgICA8cGF0aCBmaWxsPSIjRkY1NzIyIiBkPSJNMjEsMTJjLTcuMiwwLTEzLDUuOC0xMywxM2MwLDcuNiw1LjEsOSw2LDEzbDQtM3YtOGw1LTJsMS00YzMuMiwwLDYtMy45LDYtNi4xQzI3LjksMTMsMjQuNCwxMiwyMSwxMnoiLz4mI3hhOyAgICA8Y2lyY2xlIGZpbGw9IiNGRkI3NEQiIGN4PSIxOSIgY3k9IjI3IiByPSIzIi8+JiN4YTsgICAgPHBhdGggZmlsbD0iI0NGRDhEQyIgZD0iTTQ1LDI0YzAtNy4xLTMuNi0xMy40LTktMTcuMnYzNC40QzQxLjQsMzcuNCw0NSwzMS4xLDQ1LDI0eiIvPiYjeGE7ICAgIDxwYXRoIGZpbGw9IiNGRjk4MDAiIGQ9Ik0yMCw0NC42YzEuMywwLjIsMi42LDAuNCw0LDAuNGMwLjMsMCwwLjcsMCwxLTAuMWMwLjcsMCwxLjMtMC4xLDItMC4ydi02LjVsLTctMVY0NC42eiIvPiYjeGE7PC9zdmc+" vertex="1" parent="1">
          <mxGeometry x="60" y="290" width="50" height="50" as="geometry" />
        </mxCell>
        <mxCell id="UGJDxIkZkdGyzObIaBCz-5" style="edgeStyle=orthogonalEdgeStyle;rounded=0;orthogonalLoop=1;jettySize=auto;html=1;" edge="1" parent="1" source="UGJDxIkZkdGyzObIaBCz-2" target="UGJDxIkZkdGyzObIaBCz-3">
          <mxGeometry relative="1" as="geometry" />
        </mxCell>
        <mxCell id="UGJDxIkZkdGyzObIaBCz-9" value="" style="edgeStyle=orthogonalEdgeStyle;rounded=0;orthogonalLoop=1;jettySize=auto;html=1;endArrow=none;endFill=0;" edge="1" parent="1" source="UGJDxIkZkdGyzObIaBCz-2" target="UGJDxIkZkdGyzObIaBCz-3">
          <mxGeometry relative="1" as="geometry" />
        </mxCell>
        <mxCell id="UGJDxIkZkdGyzObIaBCz-2" value="" style="shape=image;verticalLabelPosition=bottom;verticalAlign=top;imageAspect=0;aspect=fixed;image=data:image/svg+xml,PHN2ZyB4bWxucz0iaHR0cDovL3d3dy53My5vcmcvMjAwMC9zdmciIHZlcnNpb249IjEiIHZpZXdCb3g9IjAgMCA0OCA0OCIgZW5hYmxlLWJhY2tncm91bmQ9Im5ldyAwIDAgNDggNDgiPiYjeGE7ICAgIDxwYXRoIGZpbGw9IiNGRjk4MDAiIGQ9Ik00NCwxOHYtNEgzNFY0aC00djEwaC00VjRoLTR2MTBoLTRWNGgtNHYxMEg0djRoMTB2NEg0djRoMTB2NEg0djRoMTB2MTBoNFYzNGg0djEwaDRWMzRoNHYxMGg0VjM0aDEwdi00SDM0IHYtNGgxMHYtNEgzNHYtNEg0NHoiLz4mI3hhOyAgICA8cGF0aCBmaWxsPSIjNENBRjUwIiBkPSJNOCwxMnYyNGMwLDIuMiwxLjgsNCw0LDRoMjRjMi4yLDAsNC0xLjgsNC00VjEyYzAtMi4yLTEuOC00LTQtNEgxMkM5LjgsOCw4LDkuOCw4LDEyeiIvPiYjeGE7ICAgIDxwYXRoIGZpbGw9IiMzNzQ3NEYiIGQ9Ik0zMSwzMUgxN2MtMS4xLDAtMi0wLjktMi0yVjE5YzAtMS4xLDAuOS0yLDItMmgxNGMxLjEsMCwyLDAuOSwyLDJ2MTBDMzMsMzAuMSwzMi4xLDMxLDMxLDMxeiIvPiYjeGE7PC9zdmc+" vertex="1" parent="1">
          <mxGeometry x="180" y="290" width="48" height="48" as="geometry" />
        </mxCell>
        <mxCell id="UGJDxIkZkdGyzObIaBCz-8" style="edgeStyle=orthogonalEdgeStyle;rounded=0;orthogonalLoop=1;jettySize=auto;html=1;exitX=1;exitY=0.5;exitDx=0;exitDy=0;entryX=0;entryY=0.5;entryDx=0;entryDy=0;endArrow=none;endFill=0;" edge="1" parent="1" source="UGJDxIkZkdGyzObIaBCz-3" target="8--HhbSZYtI3ddgJnD71-11">
          <mxGeometry relative="1" as="geometry" />
        </mxCell>
        <mxCell id="UGJDxIkZkdGyzObIaBCz-3" value="" style="shape=image;verticalLabelPosition=bottom;labelBackgroundColor=#ffffff;verticalAlign=top;aspect=fixed;imageAspect=0;image=data:image/png,iVBORw0KGgoAAAANSUhEUgAAAT4AAACfCAMAAABX0UX9AAABXFBMVEX///8AAADtIH1ku0b8/PwAAwAAAgAABQD5+fldXV3Hx8fx8fHKysr29vbvH33v7+8uLi7o6OiBgYEPDw9iYmLe3t7Pz88YGBiLi4sgICAAAAXW1ta8vLx7e3ucnJzj4+Nzc3M5OTknJyempqZFRUWwsLA1NTX4IoOTk5NQUFBoaGhLS0tjvULuIYLvIYJeXl4AAAxAbjJmuEihGFTFHme1HWFfDTIXBAwUGREkMiEKGQgTIg0vPCBLdTIjQRhNhDheqkM0WyYWMRcuTyRKaD1uqVMLIQA6aSknTxYSABIkPh5hpUdMnTgYJBVoyURUljZeiUxyzFJCgzdBhylSlUAWMA8zXClaqDodIRUgRBFRiz81USxvuVRtw1BFei1fyT00SCpGCiWPFU0tByF1E0PCHWkqBRRMDCe9HGMhBA1sFTrdJniRFVEyBRkYAwC+HmekF11DDSyNFURaEDhMtGwNAAARIElEQVR4nO1di1saWZavA/VAkBJBQEoEUbAEqerIQ+zYiZje6aRNN67dpnfGadMrQW2tMDHm//++PefeKqAgM53O7LeVteqXL4F6oNxfzvuee0sQAgQIECBAgAABAgQIECBAgAABAgQIECDAFwVRFOmv+K9uieAt/2df6MEioHAKscW16lphc301U4lycmYoiufz87XcdqG2nVyIffQO30EkfSymowmYQGmumhciIy2me4TK9pLrnnKmuPiHuv7QQWPPlGxG9r4G7evHoLGDgjCSLnwRk/Y9+18/gm9S9sF22u8SmKnN5Rhhe0+ewkH38Fn320c7CjzWIFdOM+Lwpmg5C/AY9v8DDv/y3fPuDrzY+Z7xl5hbS3s9Ai+xyFg4evnDkx+Pe92X9fNur35QP4b/3MfTss1fFN9rfzuDbv3st3rjvH7aPfnp2ZPjl8+Yose9HoOHyIP2zdHTp8fh3056jXA4XA83GvXwSbfX2NvXYH2B2FtBydt71aj/pRdu4J9wvX5er/fqJz8fHX37TIN5r8fgIZCaFz3kIoy0IXvITp04DIfPf/jhDGCJIr0ywMufu3U8XSewexjVJ73eEeQWvB6Dh0ij+p0SXUhNeAr1XwDyglAAeH0+fYnfXD9A8xfzegweYgvg0SHjotud4Si8D2UxnoKjaWbRRPLXZwpAxesxeIgCfH/cYLw1jp8fnzMNHbP0E0CmAvCDi75Gr3H6/Ng+OPA3fYtZ2Otydk7CT348qE/oMFq4x7Bag2cusazXd14dnPfY+94pwKaflVfYxKDvdMTMc9gJ90ZENXq/QEqDJxPk9bq/aK/R8f5KB+c/4Ye/8noEXiKSgP2z7lgvfz2CnQb5Ye5OTimyG12un3R/gcOGI6D18H+d7UHV12nHFmiHI3lDZnpnCuywSIb5E2RPadhs9RrP4a/Ho5sp/vsb883+hShsY9IxtnbIYOMQ9k5H9GmwZ9N3fqDA80knUu9i2lHzedJbhb3Dbr0xQcv52SP4O8oWyiJGzhqLCzFUeQr7p73wJH3HfwdI+py+AmhHjV7DxUvja1BOTxr1X18RfUfnvQZ6Cfi20QtP3FfvvXyl+Vt3BVEUkkjRWb0xJgal7hwTjucnjacAMvL3onF+CPDEHb+EGzt4qeD1ADxHBuDVwVTKVj/fQWnb13jpT3uGRu7AfQey/fpHgEV/qy4ilsC8rXvuMn8YPb8mvZU4ffjn4MTFXrjX6754BNtef/kvAOlNpOiw25isGjTq538F2ZY+GeAbt3UMh18eIqfVQPgQYhk1NfzbhF+oh89P7aK9je6k00WmG/9NQYvP3S6DSDUp5elBdyx96Bj2XezBU5dudw+ONIqY/T1R5CCyTAx9O0rHwieNF6BJE+xpcIjJsF0YrP96RGq9EcgehygsViH19PXZGRWV6yf1gynZI/P37DRMyVzj5cHPT45Qc31daXEBVTDDJx8PzpGew8cwxR7Hq+en3Qa65Ef4fn0xkL1JLFY2Qdt7+t2eo62SIl3079rt5m0HAxgUP+aHH393pEBqqRIL2HMhkswSRwSJXhW4t3RdVQ1dD929QfWVlZEYZvNMYgOMQMorw82g2WzeDTpI0YWlG4ZpmmrIMHWzj2eG93jx/gNjcc7Ps7vTiAgVlDnYvdRJ3nTjAqSBqqqhMfS2DE1dN/F6qHmF/JVjQafaCFFU1pu2bjLG9D5I1/g6SZ+ptqFj6RaeM/XQANW7HA+CZhvFLKqmpYfMEIqc+g4Fsa2HXNKnhvRr5T2xh6cNvakosOb1t/4ygD5gDpSOxdlSTauD8fLlJHdcfd8ixbphH9whxf4u9TkQhXnk4nfdJqZ1IyF9A32Gvlt0LdchXXeO/N0cNAIJH9zqhspUtEXkYdTyTmd6aqswXrhkqccuqrjKTqKM+nmCfARxEb1uiyureWfnaFLnrY6BC9dV0zT0doeHhNfIHzGN/oUaiAIIG0iKyWRMH9gFUkAZHDYtlQIZVFfr8gLsoFlBF8NItQBSQdqLWAOpSfTpFpo32SYQQxMFhoM+YjDsoDiOUo5HdzzAGcqQ8fqrfwmoArzD9MK8HHJ+rjH1GHyYrBUo0Om3UODaHxi7A9MwQ/puYPwYSgAWWrk+009pYJk6pmkkimP2BioZQoMiZpD+gQkd0jdg7eM+j5xF6hICK9QeolxJlOlS7EzuQcfwWUZlViS401kOopqUvV0pvJyAvmPZ9/QJwmIK4APqrYb2bVc3JyK935k4anBrjs+quvW9IpE2X2PiG/E9e8IqxnPIh4YvtyFjgj6mn+iD/2G5YmizxVwLczFLfm5sJs2Lz3FvSyW+N4arTKAalkRNBgNXAqdS+oZ3Kx2qqZYWhYjXo/AMohAvk8Eb8Ji4NSl6RB95Vxna7vwX+btQNIAmOhcFEoteD8JLzCF7A12/J/YupvJc1TCbdN6aKh+oaltC4UNP0sRP+7c9UhQLKFxv9ZDJEtrfZ8oEagv56UyfRVyhyJIbfgc+jl4o22W1FT10hdlESJ+uUjH6tFn2qN6yi58zKHrxb5tQEjWWjJmhYuByzYouLiOnkpNVPkJfE+RdJqvqhYLRnz/5i6wDtA3Oggx99+wG8xHM9rVmSqek7DZ9GBsmfOp7owBXKq+1XMAsfXbghxdmpM9y6AuR2vuyciDSiqyB6dAnz7CEbF4wj6xOaXXItEjX+dsBNbv4EKJQA5oSQhihIRWcTcNNH+kosHmjKfr0NkhX9ts+tYf7ElXHrhnWjSy9UafoC+m7nL6LkDl1AT2vxsNBMo9rXg/EC4hE3yUzeJTGKmC5ddTQ206RtKlPEot3XcmKzTxF1jWvh+IF2BTRO93hYOwMRv7hRrKbc6W2bkwQSAqrQNOZU/en8orCGskV44B5WNsQjtgbOj1BCsjtcSVL1S1NAU3ilQTSY1+6DloRI/FSnn7BZic7v49IUvXWUFYkZ94NeUb7h9mdQey9oW41+cI0qCfhjT8DF5FtZNBhVWTLJknpG+h+DepJ68uKrN22W3ixfXslKcqwbVINXw81NVsqL3Xmg2Hdr0XTEkoV+guWuXInO2y2DNW6HFATVd9CthiboTtJUmC4e9/s796M2vz6Jn70vY+XtRVAvkHHYdwwLZV5d6TWYTXmYYtHe6zVAA0hSqfMKabqDP4rdSyDZXVFr4fhFSI58rd6H8aNo44cXliuYEWnBEQeX+9cDyUMtDF8pvkivyJPFavBDHnjro1REGhaE3fttkxTfdeBi44EJZ8WDARyH/bOXhftltW8oBDFJukjHVZvKQpEtZXQQRO3NJGJd/p4DytRjHP2DGq7Ne+GjoJ2LHOaPtW6khl9Q+eaTl0JJa/H4CFElveCU6bX1VvuGtAgGtP0YQZM9Em7lnPJ7OOJVb+6XY4tivdGk0HUYqWxmGSGPZV118NwPHFkYsxH69q8HoKXwNBZSo39q/6BxS/Nj9H3lloOWmO5ZBNF/u4wFcUSBnC6PT1u6Ib6nmW//0z6JmsvVKfZ9HoAXmMDIDURpJhWB6XvfmbSjRRbpomlMZ8G0lf2+ut7C5H2j5QmejMM6qCH9/qs+FFFujURz6hk+3zenyuKkZJ7Ls0wLiRZsqY8r6qa72T52hUNUplry+sBeAxW9bs3J/hTm+g9bqfCZiOkXkvQdC+VeS9B1Ovv7znyNF3pErYOX1bktnxv0e26FmpRrSpoDhcWbE87YkbfVUC6aY3r82rIpNKK/EF1GcndYGEWYQvJcglan9Wl7nSHQMMw72cSYRI+Pye8DsQY8nA7YdXUJi/RX7epuswKzEMJ7aHU1ydE1NJkv2dsDCJZP2mAEbM9z2sXnzH5vbrtN5v3uxqrkMq0IEF1tNl6A7AeWD6B+FtFrm5pJojT5yxJ4OVlGK2IGTWOm/plR/HnFNEsREH8iooB9nJo1freIUxm6wPHC4ouWcqm6hZbvOXzasEExDXWjHFn0XoYVvWT2TRl5+bN++ENOmJQqBt8SKv1Q21envbzZutuiKJQSVGtGTpEFluooOw2Ly3mOcxQqz1g9k+Bm5sbLo9zvm4Jd4N2dVhIsr00uKqyZUMq+RLDNGmFEU3vAt8ch24oByvJZ7BYg1GxfqYnDeM8zZlpW13x+qt+mdhwfMTtx4r1V/wa2wPH62/6JUIUikucomszNN2pqza5Xq/GhGAHl38CUYiWmQb3dcu1QMvQLbYJ01ygt/8SESH/FbmOvu6u7bEtImoBeX8E1MtiFeXvA0YtIVYzMFQqGUiQDQoEn4ZIleKTfssuGVjtNyh7uUD0Pgm0tRxv3rju95vUk0ZOYzuQvU8GupASi56BB9EgTzz1LsAfAmOT/PaoVLC5FZSm/gz40wEX8lvJZHKrkrZPBQgQIECAAAECBAjwgCHOvPkzH/r3fuX/f2ACO7e0tFRbznzyqDK1z5kLEiPL9HvWCrQx2OJn/YgvECJffQDw6eunalD68/JDOxhz5DJUs0n96Z/wRYKWjWcT6+sw+YCX2fmKyUcg1GAz8nFRFYWRZoruswLb2WR9PZHDXxQTNh7KY7RE4Sv2KMl0AnJxfoJxJYr2uCcosYH0uclht/DPiOPPi/x49GOivO+lQHIuZmIPwwCS9C3RCDcAWMU4UlyJCRFePBaLK7xfoLgoRNIr9naGqLzCwko64vwAPCjyg3hREGLpGNo2/LuQFoR0nN1Bpzh9eHeZJK/4QJZ8EH011ohBjSn4QmqcrMEWWSuqis6lBTEN2WU8L9cYmUuQWEsBJDZE9iysFWohWt/AHxUvQWWVdt1MQy6KJnVrnutohb0w+iK0rV3JPvMAwOnD1yrZJGcRJdsAY8V+uzKy+pCj6l7NOaoRfc61NRQ8/kijsnNuqwIpkrINSIiCo7zztNRtGXJeDvp/D0RfIplcK9GoqBeylM8sc/rWIFtZKZBQEh3lSn6Nr3SpgQZr+UqJ7c4Xy0JpPl5cpqe4M/pWMwvEFF5cQd6yLvpqq6u1FP1/PCj6wBYaQdiGdbJiG4xL5DUTZyYM6WOxyhZ73vMSX7EhliFLD8HLMZNYgQSjj23bQnRH2c9h9BXwmsA5ZbwKD4u+VC6HA8+mhRiNDTUykrVFEVLbGyKjg/WuID9Jkj4kRWRtuxk8yNUwGl5CA1iMp2A9TjTPky6Ls/TlEHPU+veg6FsSIjFU0jlag8WfjVhC+iJCJcukcoHoSJPVFxNEK8V9dFOa7naCbsQCsrvKfui83R85Td+8GImw3/mg6GPbTKFMRdCQbZFcxe2++Hh0q0z6OE+WDc/HWG6yBNlF+mCFpG8NcvloNJ+fz6dJOPk6rHl7VQKjj/ays+nLOL/z4dG3TKuAqpBaYO9JjCqr9L6KUol0JOh9kpm0Gt8WbTFBHqFib7NUXBBm6cuz+yMlH9C3QaqYQRNYqFAj2qoQx0BvubJGXJEryG1VqqTgbGc/KBeWs1wkN9Gh5vOrtPaZ0Ue2L2rTF8cUbbmALtpN3wOyfXFm+xBoyTBIK0zEfVt2x2NxHPeVSQaXnCNWZEiv84M5zDMc6YvaGQz9dzAkkOdJ6UtC7qEkbcv2JmcbpS10D9FqFtYLyyRYQmYpC7m1RaaMG9VsqrTMNqTagGQhAXI1L7DMK5bMQapET+cQ57Qok75irmQneOmlXKqawzxDFIrrzibi5LQfyLZ+6EJjo8Sepfhxij3sh3RG4hG71lTE96K9BT09wy428SC7SNzOYEXn2Z5xfiMvGeTth09EnDoNOSE/7Qw2/7nr+zLZahJ1PeXvhQrRz6WPt5NnM/5+ZOoKwGfJjxipzJWqBd93YGX+vfZHP4uewF3A51DACoKivzU3QIAAAQIECBAgQIAAAQIECBAgQIAx/gcoyhBNKnt1dgAAAABJRU5ErkJggg==;" vertex="1" parent="1">
          <mxGeometry x="290" y="274.5" width="158" height="79" as="geometry" />
        </mxCell>
        <mxCell id="UGJDxIkZkdGyzObIaBCz-6" value="Mobile" style="shape=image;verticalLabelPosition=bottom;verticalAlign=top;imageAspect=0;aspect=fixed;image=data:image/svg+xml,PHN2ZyB4bWxucz0iaHR0cDovL3d3dy53My5vcmcvMjAwMC9zdmciIHZlcnNpb249IjEiIHZpZXdCb3g9IjAgMCA0OCA0OCIgZW5hYmxlLWJhY2tncm91bmQ9Im5ldyAwIDAgNDggNDgiPiYjeGE7ICAgIDxwYXRoIGZpbGw9IiMzNzQ3NEYiIGQ9Ik00LDM5VjdjMC0yLjIsMS44LTQsNC00aDIyYzIuMiwwLDQsMS44LDQsNHYzMmMwLDIuMi0xLjgsNC00LDRIOEM1LjgsNDMsNCw0MS4yLDQsMzl6Ii8+JiN4YTsgICAgPHBhdGggZmlsbD0iI0JCREVGQiIgZD0iTTMwLDZIOEM3LjQsNiw3LDYuNCw3LDd2MjljMCwwLjYsMC40LDEsMSwxaDIyYzAuNiwwLDEtMC40LDEtMVY3QzMxLDYuNCwzMC42LDYsMzAsNnoiLz4mI3hhOyAgICA8cmVjdCB4PSIxNSIgeT0iMzkiIGZpbGw9IiM3ODkwOUMiIHdpZHRoPSI2IiBoZWlnaHQ9IjIiLz4mI3hhOyAgICA8cGF0aCBmaWxsPSIjRTM4OTM5IiBkPSJNMjQsNDFWMTdjMC0yLjIsMS44LTQsNC00aDEyYzIuMiwwLDQsMS44LDQsNHYyNGMwLDIuMi0xLjgsNC00LDRIMjhDMjUuOCw0NSwyNCw0My4yLDI0LDQxeiIvPiYjeGE7ICAgIDxwYXRoIGZpbGw9IiNGRkYzRTAiIGQ9Ik00MCwxNkgyOGMtMC42LDAtMSwwLjQtMSwxdjIyYzAsMC42LDAuNCwxLDEsMWgxMmMwLjYsMCwxLTAuNCwxLTFWMTdDNDEsMTYuNCw0MC42LDE2LDQwLDE2eiIvPiYjeGE7ICAgIDxjaXJjbGUgZmlsbD0iI0E2NjQyQSIgY3g9IjM0IiBjeT0iNDIuNSIgcj0iMS41Ii8+JiN4YTs8L3N2Zz4=;labelBackgroundColor=#ffffff;" vertex="1" parent="1">
          <mxGeometry x="910" y="290" width="48" height="48" as="geometry" />
        </mxCell>
        <mxCell id="UGJDxIkZkdGyzObIaBCz-7" value="Mobile" style="shape=image;verticalLabelPosition=bottom;verticalAlign=top;imageAspect=0;aspect=fixed;image=data:image/svg+xml,PHN2ZyB4bWxucz0iaHR0cDovL3d3dy53My5vcmcvMjAwMC9zdmciIHZlcnNpb249IjEiIHZpZXdCb3g9IjAgMCA0OCA0OCIgZW5hYmxlLWJhY2tncm91bmQ9Im5ldyAwIDAgNDggNDgiPiYjeGE7ICAgIDxwYXRoIGZpbGw9IiMzNzQ3NEYiIGQ9Ik00LDM5VjdjMC0yLjIsMS44LTQsNC00aDIyYzIuMiwwLDQsMS44LDQsNHYzMmMwLDIuMi0xLjgsNC00LDRIOEM1LjgsNDMsNCw0MS4yLDQsMzl6Ii8+JiN4YTsgICAgPHBhdGggZmlsbD0iI0JCREVGQiIgZD0iTTMwLDZIOEM3LjQsNiw3LDYuNCw3LDd2MjljMCwwLjYsMC40LDEsMSwxaDIyYzAuNiwwLDEtMC40LDEtMVY3QzMxLDYuNCwzMC42LDYsMzAsNnoiLz4mI3hhOyAgICA8cmVjdCB4PSIxNSIgeT0iMzkiIGZpbGw9IiM3ODkwOUMiIHdpZHRoPSI2IiBoZWlnaHQ9IjIiLz4mI3hhOyAgICA8cGF0aCBmaWxsPSIjRTM4OTM5IiBkPSJNMjQsNDFWMTdjMC0yLjIsMS44LTQsNC00aDEyYzIuMiwwLDQsMS44LDQsNHYyNGMwLDIuMi0xLjgsNC00LDRIMjhDMjUuOCw0NSwyNCw0My4yLDI0LDQxeiIvPiYjeGE7ICAgIDxwYXRoIGZpbGw9IiNGRkYzRTAiIGQ9Ik00MCwxNkgyOGMtMC42LDAtMSwwLjQtMSwxdjIyYzAsMC42LDAuNCwxLDEsMWgxMmMwLjYsMCwxLTAuNCwxLTFWMTdDNDEsMTYuNCw0MC42LDE2LDQwLDE2eiIvPiYjeGE7ICAgIDxjaXJjbGUgZmlsbD0iI0E2NjQyQSIgY3g9IjM0IiBjeT0iNDIuNSIgcj0iMS41Ii8+JiN4YTs8L3N2Zz4=;labelBackgroundColor=#ffffff;" vertex="1" parent="1">
          <mxGeometry x="910" y="430" width="48" height="48" as="geometry" />
        </mxCell>
        <mxCell id="UGJDxIkZkdGyzObIaBCz-18" style="edgeStyle=orthogonalEdgeStyle;rounded=0;orthogonalLoop=1;jettySize=auto;html=1;exitX=1;exitY=0.5;exitDx=0;exitDy=0;endArrow=none;endFill=0;" edge="1" parent="1" source="UGJDxIkZkdGyzObIaBCz-10">
          <mxGeometry relative="1" as="geometry">
            <mxPoint x="900" y="313.7368421052631" as="targetPoint" />
          </mxGeometry>
        </mxCell>
        <mxCell id="UGJDxIkZkdGyzObIaBCz-19" style="edgeStyle=orthogonalEdgeStyle;rounded=0;orthogonalLoop=1;jettySize=auto;html=1;exitX=1;exitY=0.5;exitDx=0;exitDy=0;entryX=0;entryY=0.5;entryDx=0;entryDy=0;endArrow=none;endFill=0;" edge="1" parent="1" source="UGJDxIkZkdGyzObIaBCz-10" target="UGJDxIkZkdGyzObIaBCz-7">
          <mxGeometry relative="1" as="geometry" />
        </mxCell>
        <mxCell id="UGJDxIkZkdGyzObIaBCz-20" style="edgeStyle=orthogonalEdgeStyle;rounded=0;orthogonalLoop=1;jettySize=auto;html=1;exitX=1;exitY=0.5;exitDx=0;exitDy=0;entryX=0;entryY=0.5;entryDx=0;entryDy=0;endArrow=none;endFill=0;" edge="1" parent="1" source="UGJDxIkZkdGyzObIaBCz-10" target="8--HhbSZYtI3ddgJnD71-2">
          <mxGeometry relative="1" as="geometry" />
        </mxCell>
        <mxCell id="UGJDxIkZkdGyzObIaBCz-10" value="" style="shape=image;verticalLabelPosition=bottom;labelBackgroundColor=#ffffff;verticalAlign=top;aspect=fixed;imageAspect=0;image=data:image/png,iVBORw0KGgoAAAANSUhEUgAAAOEAAADhCAMAAAAJbSJIAAABQVBMVEX///8AKhkAAAAAJRIAGAAAIQsAKBYAFgAAHAAAGwAAGQAAJBAAFQAAHQArSj75+fnz8/NXV1cAEABTU1Pk5OTMzMxra2uqurZddm3d5OPq6upeXl7X19cXPS/J1NF9fX0ACQCVlZWNjY03VUqenp4Adamrq6thbWb/3TvIz8yBlY8Ac6b/1jCQnJe3t7dJSUn/0iluhX5VaWCgqqXAwMB1dXXs8+v/4UH/yAC5xsNngHkAebUAc7PU5O2cwdnQ0ND/wgD/6apRYlozUEVEYVcfPS88UkcNMyN/jYe61+qEtNZWnco7kMFuoscAa7Mpfa4AYJv/9KrJ3+4WgLwAaaH/2h3/5lb/5YP/8cj/97z++N7/8Gr/6kH///D/4ZX/+J//83//zEaTs8r/4oz/5XD/5KD/z1L/0Tf/z00AOiorQjcxNU1BAAAOOElEQVR4nO2dC3vSyBqAE0KGSxISAgVCuJUiFZQiUM5K1eq2VPBy1nW3Pbqe1bPr6tmD//8HnEkyEyAJuVBK2O68j48CCWHezMz3zUwCUhSBQCAQCAQCgUAgEAgEAoFAIBAIBAKBQCAQCAQCgUAgEAgEAoFAIBAIBAKBQCAQFpCO6mLYZXDjxctXr9+8ef36n6frFnOvm9thQ/H1Dz88fgS5c3n5prjeMfbSu2z48oeXT15rgpDLN0HfXZS0vwMYZvdKWaoU9GOuxatHIvXi8R2dez8+CfReqd7Nav8GqcNjsUE1Apbxerx6fPrk1SNDMKhhMZ0JbLgnHu8dByzj9Xj1GPLoUhcMbKgGN8yK2VI2YBmvx+lLnTf37q1lqMemnY004guodmrwGhm+ffv2l4+LO2Wb1Zw6bBpRdq+Oou1xA7a05r6q7jeauiFFlZr7+8dIVGoO1Vz9KT7G0wZ8Wt1u29T46WetgT6+1LmHDL+7urr6bq4o7Xcz1cZ+LqNqLSvbTSPDencf/pVT1VyuKkLD4V6uq6qZTFVXLKndXL2ezhjjgKfD7nC/McQbt4f086NHKEvcuXcPG/7r7t27V+/wPmI1s685SXWtlqhsWkWG++l97bnZD9VuvSSKx+l0w3j5CMpkc+k6fHaUyenZoZnONLdr+PIx9jMFDcP79+/jSpRyGSN3wR53BMucWTacRxrVaJENVeuQ1bSRDrLpzB58TfeEVNXq1uR0XptVeG9uKOmCV+/RPqYhVVeH9jpciKXGyyXtFJTS6ezCm0zDZnq7hnojvWMRfPnLFRS8//Ar3sk0bKqq5FKHKJbqp+AI+1LH6YwUnuGTx6iJ4igD+fxBF3zwAHfEueGRVjH+DBvpIXr7U21EEKIhEnz10z8QH94afg8e2g1hECn5NVQXDEuhG16+/PDvXzVgCL26MgSdDI90w9X90LEO99KZYniGotEH33z89dfvNGCWuIsEHzz8hHZa6odFn3V4nFYlYy94WsTwDKlXmuDl6X8cBB/aY2lVzWkCOEq6GRbVNBrN1DW58Aw/axHm8vQ303Au+KctH5bUNMyHUjqNkrabIdxoqMDNpTANnywaGoJGJ3z47A+8j5RTc3v68ERVtef1tKqNLiXYZjVDMWcYWwyhmfYyHBBpmT88Q+oFHI7+ePqbIXj/SpfTePa7uQs0rHYzw1w3k9M7oDhMZ1T4ND3UDWGw7FaPtHUaFRl29clGNtfN7dczuiDV6GLDzJDaMk9OP3/+6TejAv/4Xufr16+fvp/vobVSOLkYVo/woPm4Xq03jqVmBg3MmlU4vM42UOMtNpp6kBGP6sNqw2jge000qXjaPNqKlpUvRox594fGu4/LG+eRxkJj26Poa/DFjDFaA/2wvHGl4X4mnPpYhy84xjx8//F334bD9HbXy67Du/soiP5JUZ/8Gh7v6rKFEx/ModrX98/+a9noaChmG5m/UBVS1Pv7D1EafPZfS6ChJLVrVSlVc5ludburZdfmly9/wijzv08f7JtKdathMVdv/sX8/iaIkLDLcFOIOhLEeBR2eTYNkivqIMuwy7RRRKuhdNsMUSOVELeuBk1E8Xb2QQKBQCAQCAQCgUAg3FqeR24bzy2GZyx9u2DP/naG/Vtn2LcYFm6dYcFi2BPCLtKGEXoWw2k87CJtmPjUYtiJhl2kDRPtWAyP+LCLtGF46w0RLTnsIm0YuWUxrCTDLtKGSVYshgoHwi7TRgGcYjEUJ7fMcGK7WvSNCbtQG4X5ZhWkxrdrUMOObYa3LOXbEj5F5W9XQrSlQ5gQa2EXaqPUrMkCBtPIugfjWB2w/DBkIg4X3pk1y8WcHerAdIMffgtdEXB2wbXnwFGUWs8ZOjYyHp6EHpdt81+NwZqziyhq8SlomDcehj+djg4cDNcNNQuG0Z0xrFnH3Xqoia13sJ00jDne4XPGrXWwXTTkrAttBtPEWkfbxX6YaDsartkRFwzZXl5nvF5r2ByO3ZCiJHqtNLZgSAu8TtiCgJYcDYNnRMBwHMMvGNphtF2sZw44voq26Qe1bGTgYInzP71zzIYag0CDbyZZ41Lj8bm8YBiXdVAdcrFavHwwHqeAbK7GMgIvy3QKvnow42XLKWUEuSbMUufnqTKAh0kam5mYXB73+2cpmfcpyTtlQw0lwKowI886FT0k47gMDYV2awRpaf0QROXxoGK0FrHSk/XC8bFUL18porcUR4XavEEDVp718graJhYr+XZfe1meDdCoScmnZF8dKW5dwTB57rsDsbO89c3L2QKUO0s/O6SU4bG5vDVNKee4Glm2YJsOKCzN0UsflJ/46Emc9cLaHN/LwvGx/VeTlg1ti+oVAdhXh2B4OzCKnBzbpzvwOGzK8hYl5a2YtC4GL7zdZ0dkzx2GDB6GMI45GVIVfZFP7jkcscIxE9s7lJlnZ+RXNlKKuvDVlR1L6mnYTji/T1sgSlovFOn04rKtL/hYjGAuVgtSA19jU95sBa12r9eRVhlKo+k4NZsVRHRs07DS6fXauFV2kjSTwjUojdo9NAUb5Wn2AL/cGY8HeJ8Dj2gRWxVJ9SP5meiDCeqE0riWFISI47hU6CkFVo7DrMegHfJzQ8ALQjKCxh35GJ0c4TMMaskIOn+zGsBVWCzLLFvDul7VEFmR7g38JH2zAR7oVwKSjoagLAhaB2NYITKyGpa1ziCgljniuQNUPb0amMeJFAM4VNYT/YNktEFxXyVZme7Rx/kYmybzS/s6G2ojQMDy8XK/h9KG1ZBDdVKJJdE4uaK3IPzsgMN7FI3hJFNGhXRf+KzhBuGM6B1rzNVkNINYYUiDGFvILySVlYZ8ErXXE2HRcMzhxjIyrosBFr2943YVibnw+PJHxzPWMN9EU8nFkBM6yx+12pBZfNmc+Yw57IqjZ6LiwzC2OhkaFD0nGP4MmbI1g680lHHkMi4OxU1DfBkXj5cTLW9DQHv+gqPnPNg0PHcxBOxcUPLoh6ahUYd4Pb7P4pgTpA4T9tV8K0rCoxLNftiLrzbE93qI+ZODSc/dkKcV/DbteLj39Vn8qGUYAtyaB6sNQcJlPIPxTBgsClZG6HM25I1HyowXuKSXYRwdYRRZNCywHLp+JE30yuXO0VPnmahRNvdUYVDyyvrmZZ22DMeUIOa0TiMYL05j8yK7xFI8NivIDABRZHgC86mIP0irngjOUi6NNOLru/BeVxKZCzxoyJ+zgiCXHAxRYG/LABb5xN0wZt6+JHZSHFceYEMztYkFORrj8UDD5eYmh6uGTlS8KnE+hRaViqLMQyte1S+wqOkWxzQ9K3c8DAEwO49YLOLTBw3nBR51Ojh0KS7R3l8VevdEAJwi8pKheRIkCWfF1YbmAG4JLf/zDuOTgksV+umFGopX1udmDoNbzRCd57EZJBZwMaRrDtMBzRDQttDYcbnxJ+YjkBr0vHIiW7afXG2dBn0CnN/YpzBuhk6Keu7grAOHjsvsMGGbk66kCLwGNpxQGC3Vo6jAuQA975Ig0bbUcz7qYkjzfXMRF3UBo69wTGfhOJW+i6Bz51mB9+iUZuG0oZMfVSqtUb7TG6dgizIT1oV2gpLlwqAFA1GlMsoP2oVxGdBMr62jD8/AhfEEXWxkhfPeIJ/PT1OoJtBEFyTLvRGMZqKkDMacW4TwHJEuMfGxnMGwiRjPa3+SAqst4eK5P7q/CrBRPppIwjgfS8ZZ/TU2riEYLQToT+JmoTkhGotFBRmNS2e4HTECr80ImUTMdWLITIIIUq01ruoDAbWn693WgSb24tJtaDCtenWciPO1ipWcBL8QJeNoEfjSE7ew8sKVjfOkBLxOlDgJJgjHggEv0wAZRzLvCZgFbjyuCahbsDin+lsUm3/8xHV1xol8sHMomDVItYPeyAnnvJXerKYhmwvDXitqFmoO645eHAa6t71gJttK4HtxjVm9BKOuYi4LjILdNyEcBhfEcxZfgLJ5RUKhA9/k6HDFVkoFqkImeBvVCBJPAZ8a6B8ymgW/PGo3FAvB7iMMGkcx0yBRn4mWO1LxJLHGbao2Q2kcrCvz3ksXK/BxnWcBBhZrre+lWK5xiAM6WLphU+sKBu5Tnll5BQIcmOHf8hn1aD7YYRj7BMQ/o4Afti6MIOOvDcpC0EQcc5hE+sdtNrYjyIEG3Hb6u/49jKTfef1KzsO+v8kd9vy6glTxIuz7f9zgLtb8b5gWUZjd/SYGw2zkt0Jb/m5iCQFg+/rWuoqR3VQE6w7W7Ix2shaBfK1EuEx+S5k/CIBfY0roorhztQic7rW5DqMd64sgssEmatCSdylpMJuKokuKzO6kfo65AUGY+i92ZQDHXlxjvuRG8fluDMOTzzcwVFtBfwdCKpCvPZtwoxMLO94wwS7ABGcUcA1l07D0xrOEFSUV5tdpeetd0TfCNBJWS2Uiay8bBqM1CefHbITJjWRBJ6TD2vZjKqgdrrV0vyb5yXpfdFufxGTDI20vpJOt9kYmcrLNCjRolbc2aQR8eWs9cIkOvZ1RXJK+4SS/muKUv/n8z/LTmxuGeqMcRm7WkY0cbiPHu1E6i9zYr0QANnK2C/95UqmfiN+EI4gn+rvgp6FM6Y3POZgYPQ27fS5S7FzUNtkh2dpFJ8z44oTYOqxtqCKZWO2wtZP/7Yk0SPHRa/4qGuBi+LaO3UQZPDfuJFxPj+WF54Nd6n2OKIPDSS0RuCoBl6hNDndfz0BqTc+EmvvtoMt1F6sJZ9PWDjdOB8TKoE9HanycZVbehAIAw8b5WoTuDyo7GVl8UDma9lMTLinLsYSg/UgWx+m/liUkYrKc5Cap/vTI4WvqfzVEpdI6HrR7fcjZ2Zn2T689OG4t3IpIIBAIBEKo/B8IsuFviDGz0QAAAABJRU5ErkJggg==;" vertex="1" parent="1">
          <mxGeometry x="650" y="251.5" width="125" height="125" as="geometry" />
        </mxCell>
      </root>
    </mxGraphModel>
  </diagram>
</mxfile>
